<svg id="Layer_1" data-name="Layer 1" xmlns="http://www.w3.org/2000/svg" viewBox="0 0 24.576 22.248">
  <defs>
    <style>.cls-1{fill:#fec901;fill-rule:evenodd;}.cls-2{fill:#010101;}</style>
  </defs>
  <title>risk</title>
  <path d="M0.5,17l8.6-14.882h0a4.518,4.518,0,0,1,1.6-1.67,3.144,3.144,0,0,1,3.2,0,4.504,4.504,0,0,1,1.586,1.676l.046.088,8.416,14.614a4.182,4.182,0,0,1,.6,2.168,3.288,3.288,0,0,1-.564,1.884,3.09,3.09,0,0,1-1.148,1.2,4.2,4.2,0,0,1-2.27.556v0H3.54c-.042,0-.086,0-.128,0a3.8,3.8,0,0,1-1.566-.348,3.166,3.166,0,0,1-1.33-1.144A3.252,3.252,0,0,1,0,19.036a4.332,4.332,0,0,1,.44-1.924c.02-.04.04-.08.062-.118Z"/>
  <path class="cls-1" d="M1.818,17.756l8.6-14.876c1.044-1.788,2.698-1.84,3.762,0l8.464,14.698c.824,1.358.482,3.18-1.862,3.144H3.54C1.956,20.758,1,19.488,1.818,17.756Z"/>
  <path class="cls-2" d="M11.51,16.63a1.094,1.094,0,0,1,1.17-.244.13.13,0,0,1,.4.26,1.098,1.098,0,0,1,.32.708,1.024,1.024,0,0,1-.016.28,1.044,1.044,0,0,1-.084.268,1.102,1.102,0,0,1-1.04.65,1.126,1.126,0,0,1-.452-.106,1.102,1.102,0,0,1-.562-.584,1.2,1.2,0,0,1-.062-.268,1.056,1.056,0,0,1,0-.262h0a1.2,1.2,0,0,1,.112-.4.92.92,0,0,1,.228-.312Zm1.624-2.042c-.038.956-1.656.956-1.692,0-.164-1.638-.584-5.526-.57-7.064.014-.474.4-.756.91-.862a2.33,2.33,0,0,1,.496-.05,2.508,2.508,0,0,1,.5.05c.518.112.926.4.926.886V7.6l-.568,7Z"/>
</svg>